<?xml version="1.0" encoding="UTF-8"?>
<svg version="1.1" viewBox="0 0 800 800" width="200" height="200" xmlns="http://www.w3.org/2000/svg">
<path transform="translate(399,10)" d="m0 0 7 3 26 15 27 16 29 17 2 1 105 1 5 8 30 52 14 24 3 4v2l5 2 42 24 26 15 17 10 1 2 1 104 5 10 14 24 30 52 1 1-1 7-16 28-15 26-16 27-2 4-1 105-3 3-25 14-21 12-23 13-18 11-6 9-15 27-14 24-14 25-3 5-2 1-105 1-18 10-24 14-28 16-17 10-6-1-28-16-26-15-24-14-7-4-107-1-9-15-28-49-13-23-4-5-16-9-24-14-28-16-20-12-1-105-8-15-14-24-28-49 1-7 8-13 17-29 13-22 11-19 1-3 1-105 9-6 16-9 24-14 26-15 13-8 6-8 16-28 8-13 6-11 12-21 6-9 105-1 20-11 17-10 26-15 24-14z" fill="#423726"/>
<path transform="translate(581,235)" d="m0 0 5 3 33 31 1 3 3 1 1 3-7 8-194 194h-2v2h-2v2l-8 7-70 70-5-3-73-73-2-1v-2l-4-2-16-16-7-8-31-31 1-4 5-5 7-6 7-8 13-12 7-7 4 1 13 13 8 7 28 28v2l3 1 7 8 33 33 4-2 236-236z" fill="#ffaa17"/>
<path transform="translate(399,10)" d="m0 0 7 3 26 15 27 16 29 17 2 1 105 1 5 8 30 52 14 24 3 4v2l5 2 42 24 26 15 17 10 1 2 1 104 5 10 14 24 30 52 1 1-1 7-16 28-15 26-16 27-2 4-1 105-3 3-25 14-21 12-23 13-18 11-6 9-15 27-14 24-14 25-3 5-2 1-105 1-18 10-24 14-28 16-17 10-6-1-28-16-26-15-24-14-7-4-107-1-9-15-28-49-13-23-4-5-16-9-24-14-28-16-20-12-1-105-8-15-14-24-28-49 1-7 8-13 17-29 13-22 11-19 1-3 1-105 9-6 16-9 24-14 26-15 13-8 6-8 16-28 8-13 6-11 12-21 6-9 105-1 20-11 17-10 26-15 24-14zm0 12-11 6-22 13-23 13-21 12-11 4-98 1-5 2-11 19-6 11-15 27-14 24-8 9-20 12-25 14-23 13-14 7-1 2v88l-1 14-7 14-13 22-6 11-14 24-6 10-1 9 6 12 6 9 4 8 10 17 14 24 7 14 1 20v80l3 5 23 13 29 16 24 14 10 7 7 10 20 36 14 25 9 15 19 1h71l13 1 12 5 30 18 25 14 14 8 5 3 5-2 27-15 24-14 21-12 8-4 4-1 31-1h71l6-9 15-27 12-22 14-24 7-8 9-7 25-14 23-13 25-14 2-2 1-6 1-96 5-12 30-52 12-21-1-7-12-20-6-11-13-23-12-21-3-7-1-23v-79l-4-4-18-10-14-8-46-26-9-8-9-14-10-18-16-29-9-15-4-7-2-1h-90l-11-1-16-8-24-14-25-14-19-12z" fill="#ffaa17"/>
</svg>
