<?xml version="1.0" encoding="utf-8"?>
<!-- Generator: Adobe Illustrator 24.2.3, SVG Export Plug-In . SVG Version: 6.00 Build 0)  -->
<svg version="1.1" id="Layer_1" xmlns="http://www.w3.org/2000/svg" xmlns:xlink="http://www.w3.org/1999/xlink" x="0px" y="0px"
	 viewBox="0 0 185 24.9" style="enable-background:new 0 0 185 24.9;" xml:space="preserve">
<style type="text/css">
	.st0{fill:#FBA91E;}
	.st1{fill:#FFF4E3;}
	.st2{fill:#FFAA17;}
	.st3{fill:#FFAA17;stroke:#FFAA17;stroke-width:0.35;stroke-miterlimit:10;}
</style>
<g>
	<g>
		<g>
			<path class="st0" d="M0.5,20v-1.9h5.9c0.4,0,0.7-0.1,1-0.3c0.3-0.2,0.5-0.4,0.6-0.7c0.1-0.3,0.2-0.6,0.2-0.9S8.1,15.6,8,15.4
				c-0.1-0.2-0.3-0.4-0.6-0.6c-0.3-0.2-0.6-0.2-0.9-0.2H4c-0.8,0-1.5-0.1-2.1-0.4c-0.6-0.3-1-0.7-1.4-1.2C0.2,12.5,0,11.9,0,11.1
				c0-0.6,0.2-1.2,0.5-1.7s0.7-1,1.3-1.3C2.3,7.8,3,7.6,3.7,7.6h5.6v1.9H3.9C3.4,9.5,3,9.7,2.7,10c-0.3,0.3-0.4,0.7-0.4,1.1
				c0,0.4,0.1,0.7,0.4,1s0.7,0.4,1.3,0.4h2.4c0.9,0,1.6,0.1,2.2,0.4c0.6,0.3,1.1,0.7,1.4,1.2s0.5,1.2,0.5,1.9c0,0.7-0.2,1.3-0.5,1.8
				c-0.3,0.6-0.8,1-1.3,1.4c-0.6,0.4-1.2,0.5-2,0.5H0.5V20z"/>
			<path class="st0" d="M17.9,24.9v-4.7c-0.9-0.1-1.7-0.4-2.4-0.9c-0.7-0.5-1.2-1.1-1.6-1.8c-0.4-0.8-0.6-1.6-0.6-2.6V7.8h2.2v7.1
				c0,0.7,0.2,1.4,0.5,1.9s0.7,0.9,1.3,1.2c0.5,0.3,1.1,0.4,1.7,0.4s1.2-0.1,1.7-0.4s1-0.7,1.3-1.2s0.5-1.2,0.5-1.9V7.8h2.2v7.1
				c0,1-0.2,1.8-0.6,2.6s-0.9,1.4-1.6,1.8c-0.7,0.5-1.5,0.8-2.4,0.9v4.7H17.9z"/>
			<path class="st0" d="M34.5,20c-1.3,0-2.5-0.3-3.6-0.8c-1-0.5-1.9-1.2-2.4-2.1c-0.6-0.9-0.9-2-0.9-3.2s0.2-2.3,0.7-3.3
				s1.2-1.7,2.1-2.3c0.9-0.6,1.9-0.8,3.1-0.8c1.3,0,2.3,0.3,3.2,0.8c0.8,0.5,1.5,1.3,1.9,2.2s0.6,1.9,0.6,3.1c0,0.2,0,0.4,0,0.6
				s0,0.4-0.1,0.5h-9.2c0.1,0.8,0.3,1.4,0.7,1.9s0.9,0.9,1.6,1.2c0.7,0.3,1.4,0.4,2.1,0.4h3.2v1.9h-3V20z M29.9,13.1h7
				c0-0.3,0-0.6-0.1-1c-0.1-0.3-0.2-0.7-0.3-1c-0.2-0.3-0.4-0.6-0.6-0.9c-0.3-0.3-0.6-0.5-1-0.6c-0.4-0.2-0.9-0.2-1.4-0.2
				c-0.6,0-1.1,0.1-1.5,0.3c-0.4,0.2-0.8,0.5-1.1,0.9s-0.5,0.8-0.7,1.2S29.9,12.6,29.9,13.1z"/>
			<path class="st0" d="M47.6,20.3c-0.9,0-1.8-0.1-2.5-0.4c-0.8-0.3-1.4-0.7-2-1.3c-0.6-0.6-1-1.3-1.3-2.1c-0.3-0.8-0.5-1.7-0.5-2.7
				c0-1.3,0.3-2.4,0.8-3.3s1.2-1.7,2.1-2.2c0.9-0.5,1.9-0.8,3-0.8c0.6,0,1.2,0.1,1.8,0.3c0.6,0.2,1.1,0.5,1.5,0.9s0.8,0.8,1.1,1.3
				l0,0V2.5h2.2v11.3c0,1.4-0.3,2.5-0.8,3.5c-0.6,1-1.3,1.7-2.2,2.2S48.8,20.3,47.6,20.3z M47.6,18.4c0.8,0,1.4-0.2,2-0.6
				s1.1-0.9,1.5-1.6c0.4-0.7,0.5-1.5,0.5-2.4s-0.2-1.7-0.5-2.4c-0.4-0.7-0.8-1.2-1.5-1.6c-0.6-0.4-1.3-0.6-2.1-0.6s-1.4,0.2-2.1,0.6
				c-0.6,0.4-1.1,0.9-1.5,1.6c-0.4,0.7-0.5,1.5-0.5,2.4s0.2,1.7,0.6,2.4c0.4,0.7,0.9,1.2,1.5,1.6C46.1,18.2,46.8,18.4,47.6,18.4z"/>
			<path class="st0" d="M62.4,20.3c-1.2,0-2.2-0.3-3.1-0.9c-0.9-0.6-1.5-1.3-2-2.3s-0.7-2.1-0.7-3.2c0-1.2,0.3-2.3,0.8-3.3
				s1.2-1.7,2.2-2.3s2.1-0.9,3.5-0.9c1.3,0,2.4,0.3,3.3,0.8c0.9,0.6,1.6,1.3,2.1,2.3s0.8,2,0.8,3.2v6.2h-2.2v-2.5l0,0
				c-0.2,0.5-0.6,0.9-1,1.3s-0.9,0.8-1.5,1C63.9,20.2,63.2,20.3,62.4,20.3z M62.9,18.4c0.8,0,1.5-0.2,2.1-0.6s1.1-0.9,1.4-1.6
				c0.3-0.7,0.5-1.5,0.5-2.3s-0.2-1.6-0.5-2.3S65.6,10.4,65,10c-0.6-0.4-1.3-0.6-2.1-0.6c-0.9,0-1.6,0.2-2.2,0.6
				c-0.6,0.4-1.1,0.9-1.4,1.6c-0.3,0.7-0.5,1.5-0.5,2.3s0.2,1.6,0.5,2.3c0.3,0.7,0.8,1.2,1.4,1.6C61.3,18.2,62.1,18.4,62.9,18.4z"/>
			<path class="st0" d="M72.6,20v-1.9h5.9c0.4,0,0.7-0.1,1-0.3c0.3-0.2,0.5-0.4,0.6-0.7c0.1-0.3,0.2-0.6,0.2-0.9s-0.1-0.6-0.2-0.8
				s-0.3-0.4-0.6-0.6c-0.3-0.2-0.6-0.2-0.9-0.2h-2.5c-0.8,0-1.5-0.1-2.1-0.4c-0.6-0.3-1-0.7-1.4-1.2c-0.3-0.5-0.5-1.1-0.5-1.9
				c0-0.6,0.2-1.2,0.5-1.7s0.7-1,1.3-1.3c0.5-0.3,1.2-0.5,1.9-0.5h5.6v1.9H76c-0.5,0-0.9,0.2-1.2,0.5c-0.3,0.3-0.4,0.7-0.4,1.1
				c0,0.4,0.1,0.7,0.4,1s0.7,0.4,1.3,0.4h2.4c0.9,0,1.6,0.1,2.2,0.4c0.6,0.3,1.1,0.7,1.4,1.2s0.5,1.2,0.5,1.9c0,0.7-0.2,1.3-0.5,1.8
				c-0.3,0.6-0.8,1-1.3,1.4c-0.6,0.4-1.2,0.5-2,0.5h-6.2V20z"/>
			<path d="M86.5,5.8c-0.4,0-0.7-0.1-1-0.4s-0.4-0.6-0.4-1s0.1-0.7,0.4-1s0.6-0.4,1-0.4s0.7,0.1,1,0.4s0.4,0.6,0.4,1s-0.1,0.7-0.4,1
				C87.3,5.7,86.9,5.8,86.5,5.8z M85.4,20V7.8h2.2V20H85.4z"/>
			<path d="M91.9,20V9.7h-2.1V7.8h2.1V6c0-1.1,0.3-1.9,0.9-2.6c0.6-0.6,1.5-0.9,2.6-0.9h3v1.9h-2.6c-0.5,0-1,0.2-1.2,0.5
				c-0.3,0.3-0.4,0.7-0.4,1.3v1.7h3.7v1.9h-3.8v10.3h-2.2V20z"/>
			<path d="M100.4,20v-1.9h5.9c0.4,0,0.7-0.1,1-0.3c0.3-0.2,0.5-0.4,0.6-0.7c0.1-0.3,0.2-0.6,0.2-0.9s-0.1-0.6-0.2-0.8
				s-0.3-0.4-0.6-0.6c-0.3-0.2-0.6-0.2-0.9-0.2h-2.5c-0.8,0-1.5-0.1-2.1-0.4c-0.6-0.3-1-0.7-1.4-1.2c-0.3-0.5-0.5-1.1-0.5-1.9
				c0-0.6,0.2-1.2,0.5-1.7s0.7-1,1.3-1.3c0.5-0.3,1.2-0.5,1.9-0.5h5.6v1.9h-5.4c-0.5,0-0.9,0.2-1.2,0.5c-0.3,0.3-0.4,0.7-0.4,1.1
				c0,0.4,0.1,0.7,0.4,1s0.7,0.4,1.3,0.4h2.4c0.9,0,1.6,0.1,2.2,0.4c0.6,0.3,1.1,0.7,1.4,1.2s0.5,1.2,0.5,1.9c0,0.7-0.2,1.3-0.5,1.8
				c-0.3,0.6-0.8,1-1.3,1.4c-0.6,0.4-1.2,0.5-2,0.5h-6.2V20z"/>
			<path d="M113.2,20V2.5h2.2v6.9c0.5-0.6,1.1-1.1,1.8-1.4c0.7-0.3,1.5-0.5,2.2-0.5c1.1,0,2,0.2,2.8,0.7s1.4,1.1,1.9,1.9
				s0.7,1.8,0.7,2.9v7.1h-2.2V13c0-0.7-0.2-1.4-0.5-1.9s-0.8-0.9-1.3-1.2c-0.6-0.3-1.1-0.4-1.8-0.4s-1.2,0.1-1.8,0.4
				c-0.5,0.3-1,0.7-1.3,1.2s-0.5,1.2-0.5,1.9v7.1h-2.2V20z"/>
			<path d="M133.4,20.3c-1.2,0-2.2-0.3-3.1-0.9c-0.9-0.6-1.5-1.3-2-2.3c-0.5-1-0.7-2.1-0.7-3.2c0-1.2,0.3-2.3,0.8-3.3
				c0.5-1,1.2-1.7,2.2-2.3s2.1-0.9,3.5-0.9c1.3,0,2.4,0.3,3.3,0.8s1.6,1.3,2.1,2.3s0.8,2,0.8,3.2v6.2h-2.2v-2.5l0,0
				c-0.2,0.5-0.6,0.9-1,1.3s-0.9,0.8-1.5,1S134.3,20.3,133.4,20.3z M134,18.4c0.8,0,1.5-0.2,2.1-0.6s1.1-0.9,1.4-1.6
				c0.3-0.7,0.5-1.5,0.5-2.3s-0.2-1.6-0.5-2.3s-0.8-1.2-1.4-1.6s-1.3-0.6-2.1-0.6c-0.9,0-1.6,0.2-2.2,0.6c-0.6,0.4-1.1,0.9-1.4,1.6
				c-0.3,0.7-0.5,1.5-0.5,2.3s0.2,1.6,0.5,2.3c0.3,0.7,0.8,1.2,1.4,1.6C132.4,18.2,133.2,18.4,134,18.4z"/>
			<path d="M143.9,20V2.5h2.2v6.9c0.5-0.6,1.1-1.1,1.8-1.4c0.7-0.3,1.5-0.5,2.2-0.5c1.1,0,2,0.2,2.8,0.7s1.4,1.1,1.9,1.9
				c0.4,0.8,0.7,1.8,0.7,2.9v7.1h-2.2V13c0-0.7-0.2-1.4-0.5-1.9s-0.8-0.9-1.3-1.2c-0.6-0.3-1.1-0.4-1.8-0.4s-1.2,0.1-1.8,0.4
				c-0.5,0.3-1,0.7-1.3,1.2s-0.5,1.2-0.5,1.9v7.1h-2.2V20z"/>
		</g>
	</g>
</g>
<g>
	<path class="st1" d="M171.2,1.4l0.2,0.1l0.7,0.4l0.7,0.4l0.8,0.4l0.1,0l2.8,0l0.1,0.2l0.8,1.3l0.4,0.6l0.1,0.1v0.1l0.1,0.1l1.1,0.6
		l0.7,0.4l0.5,0.3l0,0.1l0,2.7l0.1,0.3l0.4,0.6l0.8,1.3l0,0l0,0.2l-0.4,0.7l-0.4,0.7l-0.4,0.7l-0.1,0.1l0,2.7l-0.1,0.1l-0.7,0.4
		l-0.6,0.3l-0.6,0.3l-0.5,0.3l-0.2,0.2l-0.4,0.7l-0.4,0.6l-0.4,0.6l-0.1,0.1l-0.1,0l-2.8,0l-0.5,0.3l-0.6,0.4l-0.7,0.4l-0.5,0.3
		l-0.2,0l-0.7-0.4l-0.7-0.4l-0.6-0.4l-0.2-0.1l-2.8,0l-0.2-0.4l-0.7-1.3l-0.3-0.6l-0.1-0.1l-0.4-0.2l-0.6-0.4l-0.7-0.4l-0.5-0.3
		l0-2.7l-0.2-0.4l-0.4-0.6l-0.7-1.3l0-0.2l0.2-0.3l0.5-0.7l0.3-0.6l0.3-0.5l0-0.1l0-2.7l0.2-0.2L163,6l0.6-0.4l0.7-0.4l0.3-0.2
		l0.2-0.2l0.4-0.7l0.2-0.3l0.2-0.3l0.3-0.5l0.2-0.2l2.8,0l0.5-0.3l0.5-0.3l0.7-0.4L171.2,1.4L171.2,1.4z"/>
	<path class="st2" d="M176,7.2l0.1,0.1l0.9,0.8l0,0.1l0.1,0l0,0.1L177,8.4l-5.1,5h-0.1v0.1h-0.1v0.1l-0.2,0.2l-1.9,1.8l-0.1-0.1
		l-1.9-1.9l-0.1,0v-0.1l-0.1-0.1L167,13l-0.2-0.2L166,12l0-0.1l0.1-0.1l0.2-0.2l0.2-0.2l0.3-0.3l0.2-0.2l0.1,0l0.3,0.3l0.2,0.2
		l0.7,0.7v0.1l0.1,0l0.2,0.2l0.9,0.8l0.1-0.1L176,7.2L176,7.2z"/>
	<path class="st3" d="M171.2,1.4l0.2,0.1l0.7,0.4l0.7,0.4l0.8,0.4l0.1,0l2.8,0l0.1,0.2l0.8,1.3l0.4,0.6l0.1,0.1v0.1l0.1,0.1l1.1,0.6
		l0.7,0.4l0.5,0.3l0,0.1l0,2.7l0.1,0.3l0.4,0.6l0.8,1.3l0,0l0,0.2l-0.4,0.7l-0.4,0.7l-0.4,0.7l-0.1,0.1l0,2.7l-0.1,0.1l-0.7,0.4
		l-0.6,0.3l-0.6,0.3l-0.5,0.3l-0.2,0.2l-0.4,0.7l-0.4,0.6l-0.4,0.6l-0.1,0.1l-0.1,0l-2.8,0l-0.5,0.3l-0.6,0.4l-0.7,0.4l-0.5,0.3
		l-0.2,0l-0.7-0.4l-0.7-0.4l-0.6-0.4l-0.2-0.1l-2.8,0l-0.2-0.4l-0.7-1.3l-0.3-0.6l-0.1-0.1l-0.4-0.2l-0.6-0.4l-0.7-0.4l-0.5-0.3
		l0-2.7l-0.2-0.4l-0.4-0.6l-0.7-1.3l0-0.2l0.2-0.3l0.5-0.7l0.3-0.6l0.3-0.5l0-0.1l0-2.7l0.2-0.2L163,6l0.6-0.4l0.7-0.4l0.3-0.2
		l0.2-0.2l0.4-0.7l0.2-0.3l0.2-0.3l0.3-0.5l0.2-0.2l2.8,0l0.5-0.3l0.5-0.3l0.7-0.4L171.2,1.4L171.2,1.4z M171.2,1.7l-0.3,0.2
		l-0.6,0.3l-0.6,0.3l-0.6,0.3L168.9,3l-2.6,0L166.2,3l-0.3,0.5l-0.2,0.3l-0.4,0.7l-0.4,0.6l-0.2,0.2l-0.5,0.3L163.5,6l-0.6,0.3
		l-0.4,0.2l0,0.1v2.3l0,0.4l-0.2,0.4l-0.3,0.6l-0.2,0.3l-0.4,0.6l-0.2,0.3l0,0.2l0.2,0.3l0.2,0.2l0.1,0.2l0.3,0.4l0.4,0.6l0.2,0.4
		l0,0.5v2.1l0.1,0.1l0.6,0.3l0.8,0.4l0.6,0.4l0.3,0.2l0.2,0.3l0.5,0.9l0.4,0.6l0.2,0.4l0.5,0h1.9l0.3,0l0.3,0.1l0.8,0.5l0.7,0.4
		l0.4,0.2l0.1,0.1l0.1-0.1l0.7-0.4l0.6-0.4l0.6-0.3l0.2-0.1l0.1,0l0.8,0h1.9l0.2-0.2l0.4-0.7l0.3-0.6l0.4-0.6l0.2-0.2l0.2-0.2
		l0.7-0.4l0.6-0.3l0.7-0.4l0.1-0.1l0-0.2l0-2.5l0.1-0.3l0.8-1.3l0.3-0.5l0-0.2l-0.3-0.5l-0.2-0.3l-0.3-0.6l-0.3-0.5L180,9.2l0-0.6
		v-2l-0.1-0.1l-0.5-0.3L179,6l-1.2-0.7l-0.2-0.2l-0.2-0.4l-0.3-0.5l-0.4-0.7l-0.2-0.4L176.3,3l-0.1,0h-2.4l-0.3,0l-0.4-0.2l-0.6-0.4
		L171.8,2l-0.5-0.3H171.2z"/>
</g>
</svg>
